<mxfile host="Electron" modified="2024-01-16T11:29:01.330Z" agent="Mozilla/5.0 (Windows NT 10.0; Win64; x64) AppleWebKit/537.36 (KHTML, like Gecko) draw.io/21.1.2 Chrome/106.0.5249.199 Electron/21.4.3 Safari/537.36" etag="IsVeUFU2EkkDMEd8Xe2-" version="21.1.2" type="device">
  <diagram name="Page-1" id="Pg1XpjBiWAMOqzFmVkYa">
    <mxGraphModel dx="784" dy="537" grid="1" gridSize="10" guides="1" tooltips="1" connect="1" arrows="1" fold="1" page="1" pageScale="1" pageWidth="1169" pageHeight="827" background="none" math="0" shadow="0">
      <root>
        <mxCell id="0" />
        <mxCell id="1" parent="0" />
        <mxCell id="GWNYYibfc6u7Uzu7YpZk-50" value="API" style="edgeStyle=orthogonalEdgeStyle;rounded=0;orthogonalLoop=1;jettySize=auto;html=1;exitX=0;exitY=0.5;exitDx=0;exitDy=0;entryX=1;entryY=0.5;entryDx=0;entryDy=0;curved=1;startArrow=classic;startFill=1;fillColor=#60a917;strokeColor=#2D7600;strokeWidth=7;fontSize=19;" parent="1" source="GWNYYibfc6u7Uzu7YpZk-44" target="GWNYYibfc6u7Uzu7YpZk-12" edge="1">
          <mxGeometry relative="1" as="geometry" />
        </mxCell>
        <mxCell id="GWNYYibfc6u7Uzu7YpZk-44" value="" style="rounded=0;whiteSpace=wrap;html=1;fillColor=none;dashed=1;dashPattern=12 12;strokeWidth=4;" parent="1" vertex="1">
          <mxGeometry x="571.25" y="120" width="330" height="230" as="geometry" />
        </mxCell>
        <mxCell id="GWNYYibfc6u7Uzu7YpZk-45" value="Webbrowser&lt;br style=&quot;font-size: 18px;&quot;&gt;Client Seite" style="rounded=0;whiteSpace=wrap;html=1;fillColor=#008a00;fontColor=#ffffff;strokeColor=#005700;fontSize=18;" parent="1" vertex="1">
          <mxGeometry x="606.25" y="264" width="260" height="60" as="geometry" />
        </mxCell>
        <mxCell id="GWNYYibfc6u7Uzu7YpZk-46" value="&lt;span style=&quot;font-size: 14px;&quot;&gt;Notebook&lt;/span&gt;" style="text;html=1;strokeColor=none;fillColor=none;align=left;verticalAlign=middle;whiteSpace=wrap;rounded=0;fontStyle=1" parent="1" vertex="1">
          <mxGeometry x="570" y="90" width="202.5" height="30" as="geometry" />
        </mxCell>
        <mxCell id="GWNYYibfc6u7Uzu7YpZk-54" style="edgeStyle=orthogonalEdgeStyle;rounded=0;orthogonalLoop=1;jettySize=auto;html=1;exitX=0.75;exitY=1;exitDx=0;exitDy=0;exitPerimeter=0;entryX=0.75;entryY=0;entryDx=0;entryDy=0;strokeWidth=3;" parent="1" source="GWNYYibfc6u7Uzu7YpZk-47" target="GWNYYibfc6u7Uzu7YpZk-45" edge="1">
          <mxGeometry relative="1" as="geometry" />
        </mxCell>
        <mxCell id="GWNYYibfc6u7Uzu7YpZk-47" value="Netzwerkkarte/&lt;br style=&quot;font-size: 18px;&quot;&gt;Wifi Interface" style="rounded=0;whiteSpace=wrap;html=1;points=[[0,0,0,0,0],[0,0.25,0,0,0],[0,0.5,0,0,0],[0,0.75,0,0,0],[0,1,0,0,0],[0.13,0,0,0,0],[0.25,0,0,0,0],[0.25,1,0,0,0],[0.38,0,0,0,0],[0.5,0,0,0,0],[0.5,1,0,0,0],[0.62,0,0,0,0],[0.75,0,0,0,0],[0.75,1,0,0,0],[0.87,0,0,0,0],[1,0,0,0,0],[1,0.25,0,0,0],[1,0.5,0,0,0],[1,0.75,0,0,0],[1,1,0,0,0]];fontSize=18;" parent="1" vertex="1">
          <mxGeometry x="606.25" y="150" width="260" height="60" as="geometry" />
        </mxCell>
        <mxCell id="GWNYYibfc6u7Uzu7YpZk-53" style="edgeStyle=orthogonalEdgeStyle;rounded=0;orthogonalLoop=1;jettySize=auto;html=1;strokeWidth=3;entryX=0.25;entryY=1;entryDx=0;entryDy=0;entryPerimeter=0;exitX=0.25;exitY=0;exitDx=0;exitDy=0;" parent="1" source="GWNYYibfc6u7Uzu7YpZk-45" target="GWNYYibfc6u7Uzu7YpZk-47" edge="1">
          <mxGeometry relative="1" as="geometry">
            <mxPoint x="670" y="260" as="sourcePoint" />
            <mxPoint x="671" y="200" as="targetPoint" />
          </mxGeometry>
        </mxCell>
        <mxCell id="GWNYYibfc6u7Uzu7YpZk-48" value="" style="verticalLabelPosition=bottom;shadow=0;dashed=0;align=center;html=1;verticalAlign=top;shape=mxgraph.electrical.radio.aerial_-_antenna_1;" parent="1" vertex="1">
          <mxGeometry x="811.25" y="165" width="20" height="30" as="geometry" />
        </mxCell>
        <mxCell id="GWNYYibfc6u7Uzu7YpZk-12" value="" style="rounded=0;whiteSpace=wrap;html=1;fillColor=none;dashed=1;dashPattern=12 12;strokeWidth=4;" parent="1" vertex="1">
          <mxGeometry x="61.25" y="120" width="330" height="230" as="geometry" />
        </mxCell>
        <mxCell id="GWNYYibfc6u7Uzu7YpZk-1" value="Webserver" style="rounded=0;whiteSpace=wrap;html=1;fillColor=#008a00;fontColor=#ffffff;strokeColor=#005700;fontSize=18;" parent="1" vertex="1">
          <mxGeometry x="101.25" y="150" width="260" height="60" as="geometry" />
        </mxCell>
        <mxCell id="GWNYYibfc6u7Uzu7YpZk-13" value="Raspberry Pie" style="text;html=1;strokeColor=none;fillColor=none;align=left;verticalAlign=middle;whiteSpace=wrap;rounded=0;fontStyle=1;fontSize=14;" parent="1" vertex="1">
          <mxGeometry x="60" y="90" width="202.5" height="30" as="geometry" />
        </mxCell>
        <mxCell id="GWNYYibfc6u7Uzu7YpZk-22" style="edgeStyle=orthogonalEdgeStyle;rounded=0;orthogonalLoop=1;jettySize=auto;html=1;exitX=0.25;exitY=0;exitDx=0;exitDy=0;exitPerimeter=0;entryX=0.25;entryY=1;entryDx=0;entryDy=0;strokeWidth=4;" parent="1" source="GWNYYibfc6u7Uzu7YpZk-15" target="GWNYYibfc6u7Uzu7YpZk-1" edge="1">
          <mxGeometry relative="1" as="geometry" />
        </mxCell>
        <mxCell id="GWNYYibfc6u7Uzu7YpZk-15" value="Netzwerkkarte/&lt;br style=&quot;font-size: 18px;&quot;&gt;Wifi Interface" style="rounded=0;whiteSpace=wrap;html=1;points=[[0,0,0,0,0],[0,0.25,0,0,0],[0,0.5,0,0,0],[0,0.75,0,0,0],[0,1,0,0,0],[0.13,0,0,0,0],[0.25,0,0,0,0],[0.25,1,0,0,0],[0.38,0,0,0,0],[0.5,0,0,0,0],[0.5,1,0,0,0],[0.62,0,0,0,0],[0.75,0,0,0,0],[0.75,1,0,0,0],[0.87,0,0,0,0],[1,0,0,0,0],[1,0.25,0,0,0],[1,0.5,0,0,0],[1,0.75,0,0,0],[1,1,0,0,0]];fontSize=18;" parent="1" vertex="1">
          <mxGeometry x="101.25" y="264" width="260" height="60" as="geometry" />
        </mxCell>
        <mxCell id="GWNYYibfc6u7Uzu7YpZk-23" style="edgeStyle=orthogonalEdgeStyle;rounded=0;orthogonalLoop=1;jettySize=auto;html=1;exitX=0.75;exitY=1;exitDx=0;exitDy=0;entryX=0.75;entryY=0;entryDx=0;entryDy=0;entryPerimeter=0;strokeWidth=4;" parent="1" source="GWNYYibfc6u7Uzu7YpZk-1" target="GWNYYibfc6u7Uzu7YpZk-15" edge="1">
          <mxGeometry relative="1" as="geometry" />
        </mxCell>
        <mxCell id="GWNYYibfc6u7Uzu7YpZk-16" value="" style="verticalLabelPosition=bottom;shadow=0;dashed=0;align=center;html=1;verticalAlign=top;shape=mxgraph.electrical.radio.aerial_-_antenna_1;" parent="1" vertex="1">
          <mxGeometry x="301.25" y="279" width="20" height="30" as="geometry" />
        </mxCell>
      </root>
    </mxGraphModel>
  </diagram>
</mxfile>
